<svg xmlns="http://www.w3.org/2000/svg" width="87" height="24" viewBox="0 0 87 24" fill="white"><path d="M64.9697 15.1357L68.3447 6.74609H71.9521L64.6328 24H60.874L63.0645 18.9424L57.6885 6.74609H61.5947L64.9697 15.1357ZM11.1465 0C15.8997 0.0282932 18.1373 0.972339 19.7744 2.5166C21.3196 4.15296 22.2646 6.39081 22.293 11.1406C22.2647 15.8906 21.3196 18.1283 19.7744 19.7646C18.1372 21.3079 15.8988 22.2539 11.1465 22.2822C6.39419 22.2539 4.15573 21.3091 2.51855 19.7646C0.973389 18.1283 0.0283085 15.8906 0 11.1406C0.0283436 6.39081 0.973407 4.15414 2.51855 2.5166C4.15689 0.972328 6.39446 0.0282965 11.1465 0ZM34.6709 1.64453C39.3689 1.67401 41.8516 3.30838 41.8516 6.37012C41.8515 8.33951 40.879 9.75591 38.9609 10.5859C41.5232 11.1131 42.8203 12.5623 42.8203 14.8975C42.8202 16.5513 42.142 17.9788 40.8223 18.9785C38.3972 20.8165 34.8867 20.6328 34.8867 20.6328C33.318 20.6328 31.8398 20.3856 30.5234 19.9141C29.3581 19.4967 28.411 18.9314 27.8555 18.3242L27.8135 18.2783V14.4912L28.1758 14.2324C29.4662 16.194 32.0218 17.3471 35.0459 17.3271C37.9593 17.2941 38.999 15.9427 38.999 14.6895C38.999 13.6662 38.5431 12.4932 34.9932 12.4932H31.9795V9.49902H34.9658C36.9885 9.49902 38.0574 8.70428 38.0576 7.2002C38.0576 4.82622 34.5974 4.94952 34.5322 4.9502C31.7273 4.9502 29.6082 6.5431 28.6104 7.95312L28.2686 7.70801V3.33008C28.2938 3.31013 30.445 1.61759 34.6709 1.64453ZM52.0889 6.74609C55.2145 6.74609 56.6718 7.7468 56.6719 9.89355C56.6719 11.3307 55.9717 12.3834 54.7344 12.8467H54.7363C56.5136 13.1981 57.3457 14.2348 57.3457 16.0762C57.3457 17.3777 56.8964 18.3763 56.0117 19.0459C55.1188 19.7201 53.772 20.0635 52.0088 20.0635H45.1885V6.74609H52.0889ZM76.6787 11.8555H78.6982L82.4697 6.74609H86.249L81.4512 13.0371L87.0088 20.0635H82.9043L78.6729 14.6406H76.6787V20.0635H73.3076V6.74609H76.6787V11.8555ZM3.36133 7.25879C3.20213 7.95311 3.08551 8.81248 3.03125 9.89453C7.81528 10.6821 11.5991 14.4689 12.3789 19.2529V19.2549C13.4594 19.2007 14.3209 19.0857 15.0156 18.9277C13.8809 11.6183 7.93314 7.97677 3.36133 7.25879ZM3.06641 12.9541C3.27753 15.7245 3.93218 16.8743 4.63867 17.6465V17.6455C5.4089 18.3505 6.55827 19.0036 9.31836 19.2158C8.60711 16.1164 6.16502 13.6721 3.06641 12.9541ZM11.1475 2.99512C7.27053 3.02108 5.74687 3.7045 4.81152 4.4873C11.1277 5.86678 16.3479 10.8075 17.7939 17.4873V17.4863C18.5819 16.5538 19.2709 15.0335 19.2969 11.1406C19.2697 7.02059 18.4997 5.55865 17.6553 4.63672C16.7329 3.79259 15.2699 3.02223 11.1475 2.99512ZM48.5596 17.3057H51.71C53.7385 17.3057 53.9999 16.5373 54 15.8701C54 14.8539 53.4125 14.459 51.9004 14.459H48.5596V17.3057ZM48.5596 9.53223H48.5615V12.0391H51.335C52.6572 12.0391 53.3008 11.5866 53.3008 10.6553C53.3008 9.82889 52.7566 9.50685 51.3613 9.50684L48.5596 9.53223Z" fill="white"></path></svg>